<svg height="40" viewBox="0 0 40 40" width="40" xmlns="http://www.w3.org/2000/svg"><path d="m844.1 519.178a2.21 2.21 0 0 1 -.629 1.562 2.086 2.086 0 0 1 -1.6.67h-10.18v-15.535h5.177l.8-5.981h-5.981v-3.84a3.345 3.345 0 0 1 .534-2.145 3.1 3.1 0 0 1 2.411-.8h3.215v-5.444q-1.874-.177-4.644-.179a7.26 7.26 0 0 0 -7.768 7.947v4.465h-5.177v5.981h5.177v15.531h-19.104a2.085 2.085 0 0 1 -1.6-.67 2.205 2.205 0 0 1 -.625-1.562v-35.536a2.14 2.14 0 0 1 2.228-2.232h35.539a2.224 2.224 0 0 1 1.562.625 2.107 2.107 0 0 1 .67 1.608z" fill="#fff" transform="translate(-804.103 -481.41)"/></svg>