<svg height="40.658" viewBox="0 0 40 40.658" width="40" xmlns="http://www.w3.org/2000/svg"><path d="m725.644 509.912a17.7 17.7 0 0 1 -6.928 7.051 20.449 20.449 0 0 1 -10.286 2.543 19.71 19.71 0 0 1 -10.164-2.746 20.533 20.533 0 0 1 -7.418-7.421 20.187 20.187 0 0 1 0-20.327 20.5 20.5 0 0 1 7.418-7.418 19.678 19.678 0 0 1 10.164-2.745 19.133 19.133 0 0 1 13.609 5.327l-5.495 5.33a10.9 10.9 0 0 0 -6.309-3.036 12.314 12.314 0 0 0 -6.806.986 12.541 12.541 0 0 0 -7.621 11.72 12.41 12.41 0 0 0 1.721 6.435 13.4 13.4 0 0 0 4.589 4.673 11.833 11.833 0 0 0 6.313 1.763 12.533 12.533 0 0 0 6.478-1.64 11.364 11.364 0 0 0 3.686-3.525 10.954 10.954 0 0 0 1.4-3.606h-11.565v-7.051h19.345a19.126 19.126 0 0 1 .329 3.445 21.018 21.018 0 0 1 -2.46 10.242z" fill="#fff" transform="translate(-688.103 -478.848)"/></svg>